<svg width="50" height="51" viewBox="0 0 50 51" fill="none" xmlns="http://www.w3.org/2000/svg">
<path d="M39.9458 13.2023C37.9614 17.4584 34.2369 21.8248 32.1029 26.0454C29.5989 31.1519 26.1853 36.2348 22.9765 40.8807C22.6813 40.676 22.508 39.9869 22.0946 40.2704C20.5867 41.5146 20 41.1051 19.4095 40.6996C19.1142 40.4948 20.2087 39.542 19.6496 39.7232C20.4489 38.5696 21.6261 36.534 20.5394 37.4908C19.9804 37.6758 19.2087 39.42 18.5039 39.4987C17.7952 39.5775 17.8858 38.5026 17.181 38.5853C16.9133 38.9712 16.3818 39.735 16.114 40.1208C15.555 40.298 15.4998 39.1247 15.2321 39.5066C14.1415 40.4515 13.2163 42.0815 12.1454 43.6052C11.854 43.4005 11.291 43.5737 11.6808 42.7115C20.7796 29.1715 29.3863 14.7969 38.3591 1.20183C39.4851 -0.290363 39.367 1.2727 39.0875 2.7452C39.178 2.25305 39.6347 2.53653 39.7292 2.04438C40.1859 2.32392 40.4615 3.58775 39.6308 5.27287L40.367 4.0799C40.7647 3.77674 40.8238 4.35944 41.1269 4.54843C40.8828 4.94608 40.6348 5.34374 40.7883 5.43823C40.9419 5.53272 41.245 5.7217 41.3946 5.81226C41.6388 5.41461 42.1309 4.61536 42.375 4.2177C42.1309 4.61536 41.8829 5.01695 42.0364 5.10751C42.19 5.202 42.4931 5.38704 42.6467 5.48154C42.3081 6.37528 41.2608 7.37926 40.9183 8.27299L41.375 8.55647C42.0207 7.85172 42.6152 6.56426 43.1034 5.76501C43.0089 6.25716 43.1624 6.35165 43.4656 6.54064C42.875 7.83203 41.6781 8.74546 41.3868 10.2258L42.1309 9.02893C42.3947 10.3006 40.5403 11.9109 39.9379 13.1984L39.9458 13.2023Z" fill="#EE6725"/>
<path d="M24.3424 7.72474C26.8504 12.0714 28.5434 17.9653 31.016 22.3789C34.0515 27.6429 36.6304 33.655 39.0124 39.2025C38.6856 39.3442 37.9926 39.0922 38.0281 39.6237C38.3273 41.6829 37.6698 41.9664 37.0123 42.2498C36.6855 42.3916 36.4178 40.8639 36.2878 41.4663C35.6933 40.0804 34.5358 37.8363 34.8035 39.3678C34.6736 39.9702 35.7957 41.6789 35.5004 42.3522C35.2051 43.0255 34.3153 42.3128 34.024 42.9861C34.2208 43.4507 34.6185 44.372 34.8193 44.8366C34.6893 45.4389 33.6342 44.7972 33.835 45.2578C34.1027 46.7855 35.0594 48.5651 35.8508 50.4116C35.524 50.5533 35.3941 51.1557 34.8311 50.3014C27.5552 34.2613 19.7596 17.8984 13.3105 1.50794C12.6805 -0.409466 13.9325 0.692943 15.0192 1.87016C14.657 1.48038 15.1491 1.26777 14.7869 0.874053C15.2791 0.661446 16.4996 1.23627 17.4563 3.01588C17.2595 2.55523 17.0587 2.09064 16.8618 1.62999C16.8264 1.09847 17.354 1.41738 17.6847 1.27958C17.8815 1.74417 18.0823 2.20482 18.2477 2.13395C18.4131 2.06308 18.7398 1.92134 18.9052 1.85047C18.7083 1.38982 18.3107 0.464587 18.1138 0C18.3107 0.46065 18.5115 0.925236 18.6729 0.854367C18.8383 0.783498 19.1651 0.64176 19.3304 0.570891C19.8895 1.42526 20.1572 2.95288 20.7202 3.80725L21.2124 3.59464C20.9801 2.59854 20.2202 1.28352 19.8226 0.358283C20.1848 0.752001 20.3501 0.681131 20.6769 0.539393C21.4368 1.85441 21.5392 3.4529 22.6258 4.63012C22.429 4.16947 22.2282 3.70488 22.0313 3.24423C23.2479 3.81512 23.5826 6.40972 24.3424 7.72474Z" fill="#EE6725"/>
<path d="M41.6189 24.0673C37.1266 25.654 31.3153 25.9847 26.7088 27.2879C21.1771 28.9297 15.0075 29.792 9.30652 30.3943C9.26715 30.04 9.68449 29.4534 9.19234 29.3274C7.2395 28.9966 7.17257 28.284 7.09776 27.5753C7.06233 27.221 8.50727 27.4257 8.00331 27.1186C9.41676 26.9769 11.7436 26.5241 10.2948 26.3312C9.78685 26.032 7.94819 26.5832 7.42455 26.1028C6.90091 25.6185 7.7789 24.9847 7.25919 24.5043C6.79066 24.5516 5.85755 24.6461 5.39297 24.6894C4.89295 24.3783 5.75519 23.5752 5.2906 23.6224C3.86141 23.4098 2.02274 23.7484 0.160461 23.9059C0.128963 23.5476 -0.363183 23.2326 0.550241 22.9767C8.65295 22.1341 16.8187 20.8624 24.9253 19.3663C33.0359 17.8702 41.0913 16.1575 49.0405 14.4448C50.887 14.1732 49.7138 15.2008 48.4814 16.0552C48.8909 15.7677 49.0208 16.2914 49.4303 16.004C49.5602 16.5237 48.8673 17.6221 47.0837 18.2363L48.4539 17.9017C48.9539 17.9607 48.5798 18.4214 48.6665 18.7679C48.2098 18.882 47.753 18.9923 47.7924 19.1695C47.8357 19.3427 47.9184 19.6892 47.9617 19.8624C48.4184 19.7482 49.3358 19.5238 49.7964 19.4096C49.3397 19.5238 48.8791 19.634 48.9224 19.8112C48.9657 19.9845 49.0484 20.3309 49.0917 20.5081C48.2137 20.9136 46.7491 20.8861 45.8671 21.2798L45.9892 21.8034C46.9538 21.7562 48.3003 21.264 49.2216 21.0317C48.8043 21.3192 48.8436 21.4924 48.9303 21.8389C47.5837 22.3468 46.0758 22.1538 44.8041 22.9964L46.1939 22.6735C45.4695 23.7681 42.9851 23.5909 41.6307 24.0673H41.6189Z" fill="#EE6725"/>
</svg>
