<svg width="28" height="28" viewBox="0 0 28 28" fill="none" xmlns="http://www.w3.org/2000/svg">
<g filter="url(#filter0_d_4_16)">
<path fill-rule="evenodd" clip-rule="evenodd" d="M7.44431 21.3147C9.08879 22.4135 11.0222 23 13 23C15.6513 22.9971 18.1931 21.9426 20.0679 20.0679C21.9426 18.1931 22.9971 15.6513 23 13C23 11.0222 22.4135 9.08879 21.3147 7.4443C20.2159 5.79981 18.6541 4.51808 16.8268 3.76121C14.9996 3.00433 12.9889 2.8063 11.0491 3.19215C9.10929 3.578 7.32746 4.53041 5.92894 5.92893C4.53041 7.32746 3.578 9.10929 3.19215 11.0491C2.8063 12.9889 3.00433 14.9996 3.76121 16.8268C4.51809 18.6541 5.79981 20.2159 7.44431 21.3147ZM14 12.434L18.515 15.143C18.6301 15.2094 18.7308 15.298 18.8112 15.4037C18.8917 15.5094 18.9503 15.6301 18.9836 15.7587C19.0169 15.8873 19.0242 16.0212 19.0051 16.1527C18.9861 16.2842 18.941 16.4105 18.8726 16.5244C18.8042 16.6382 18.7138 16.7373 18.6066 16.8159C18.4995 16.8944 18.3778 16.9508 18.2486 16.9818C18.1194 17.0127 17.9853 17.0176 17.8542 16.9962C17.7231 16.9748 17.5976 16.9275 17.485 16.857L12.485 13.857C12.3417 13.7631 12.223 13.6364 12.1386 13.4873C12.0542 13.3382 12.0067 13.1712 12 13V7C12 6.73478 12.1054 6.48043 12.2929 6.29289C12.4804 6.10536 12.7348 6 13 6C13.2652 6 13.5196 6.10536 13.7071 6.29289C13.8946 6.48043 14 6.73478 14 7V12.434Z" fill="#FFD503"/>
</g>
<defs>
<filter id="filter0_d_4_16" x="0" y="-3.8147e-06" width="28" height="28" filterUnits="userSpaceOnUse" color-interpolation-filters="sRGB">
<feFlood flood-opacity="0" result="BackgroundImageFix"/>
<feColorMatrix in="SourceAlpha" type="matrix" values="0 0 0 0 0 0 0 0 0 0 0 0 0 0 0 0 0 0 127 0" result="hardAlpha"/>
<feOffset dx="1" dy="1"/>
<feGaussianBlur stdDeviation="2"/>
<feComposite in2="hardAlpha" operator="out"/>
<feColorMatrix type="matrix" values="0 0 0 0 0 0 0 0 0 0 0 0 0 0 0 0 0 0 0.25 0"/>
<feBlend mode="normal" in2="BackgroundImageFix" result="effect1_dropShadow_4_16"/>
<feBlend mode="normal" in="SourceGraphic" in2="effect1_dropShadow_4_16" result="shape"/>
</filter>
</defs>
</svg>
