<svg width="512" height="512" viewBox="0 0 512 512" fill="none" xmlns="http://www.w3.org/2000/svg">
<path d="M128 151H375V371H128V151Z" fill="white"/>
<path d="M256 42.666C138.666 42.666 42.6665 138.666 42.6665 255.999C42.6665 373.333 138.666 469.333 256 469.333C373.333 469.333 469.333 373.333 469.333 255.999C469.333 138.666 373.333 42.666 256 42.666ZM334.933 305.066C343.466 313.599 343.466 326.399 334.933 334.933C326.4 343.466 313.6 343.466 305.066 334.933L256 285.866L206.933 334.933C198.4 343.466 185.6 343.466 177.066 334.933C168.533 326.399 168.533 313.599 177.066 305.066L226.133 255.999L177.066 206.933C168.533 198.399 168.533 185.599 177.066 177.066C185.6 168.533 198.4 168.533 206.933 177.066L256 226.133L305.066 177.066C313.6 168.533 326.4 168.533 334.933 177.066C343.466 185.599 343.466 198.399 334.933 206.933L285.866 255.999L334.933 305.066Z" fill="#EE6725"/>
</svg>
